<svg version="1.1" id="Layer_1" xmlns="http://www.w3.org/2000/svg" xmlns:xlink="http://www.w3.org/1999/xlink" x="0px" y="0px"
	 width="100%" viewBox="0 0 476 476" enable-background="new 0 0 476 476" xml:space="preserve">
<path fill="#000000" opacity="1.000000" stroke="none" 
	d="
M270.000000,0.999998 
	C338.927032,1.000000 407.854034,1.000000 477.000000,1.000000 
	C477.000000,69.687408 477.000000,138.375046 476.698975,207.840820 
	C475.876099,207.413651 475.354279,206.208328 474.903931,204.604279 
	C474.595306,202.137894 474.215210,200.070267 473.905823,197.629822 
	C473.596527,195.838379 473.216522,194.419769 472.905945,192.613251 
	C472.261139,189.819046 471.546906,187.412750 470.904449,184.605133 
	C470.262115,181.138046 469.547943,178.072266 468.781952,174.639404 
	C468.094910,172.183563 467.459717,170.094833 466.777008,167.651550 
	C466.097321,165.532639 465.465149,163.768295 464.794983,161.659790 
	C464.115814,159.878220 463.474609,158.440842 462.783203,156.646179 
	C461.838623,154.159393 460.944214,152.029907 460.018585,149.541046 
	C459.267944,147.455994 458.548523,145.730331 457.789734,143.663116 
	C456.534515,141.198334 455.318665,139.075058 454.053894,136.620117 
	C453.376984,135.179977 452.748993,134.071503 452.063232,132.617676 
	C451.281342,130.849747 450.557190,129.427185 449.792419,127.665154 
	C448.769958,125.542145 447.788147,123.758598 446.800781,121.712791 
	C446.514374,121.249794 446.233429,121.049065 445.884277,120.624023 
	C445.816101,120.399719 445.422394,120.145027 445.270020,119.868210 
	C444.349854,118.063309 443.582062,116.535225 442.774231,114.685913 
	C441.528320,112.895218 440.322449,111.425743 439.061707,109.624405 
	C438.282898,108.196785 437.558960,107.101028 436.787537,105.671082 
	C435.295197,103.278893 433.850342,101.220909 432.244568,98.924591 
	C431.333588,97.792694 430.583557,96.899132 429.800598,95.692566 
	C428.553741,94.238945 427.339752,93.098343 426.067535,91.618317 
	C424.618500,89.521172 423.227692,87.763458 421.753174,85.684799 
	C419.813995,83.557198 417.958527,81.750549 415.954163,79.637299 
	C414.344208,77.619118 412.883118,75.907555 411.255066,73.955856 
	C409.763855,72.463860 408.439575,71.212006 406.960999,69.660248 
	C403.571930,66.555984 400.337158,63.751625 396.947937,60.646278 
	C392.894104,57.211189 388.994751,54.077087 384.936584,50.641060 
	C380.701721,47.496746 376.625702,44.654350 372.318787,41.531330 
	C366.581177,38.035099 361.074463,34.819496 355.385590,31.307362 
	C349.811951,28.304243 344.420502,25.597658 338.818451,22.612598 
	C335.965424,21.416822 333.322937,20.499525 330.461761,19.287407 
	C318.845856,15.301858 307.448700,11.611131 295.798553,7.637846 
	C289.563660,6.151271 283.555328,5.061522 277.611938,3.690512 
	C275.006378,3.089472 272.533264,1.914409 270.000000,0.999998 
z"/>
<path fill="#000000" opacity="1.000000" stroke="none" 
	d="
M477.000000,270.000000 
	C477.000000,338.927032 477.000000,407.854034 477.000000,477.000000 
	C408.312592,477.000000 339.624969,477.000000 270.145081,476.651978 
	C270.015869,475.878815 270.628387,475.218658 271.349518,475.063538 
	C283.527374,472.443817 295.718781,469.886963 308.235962,467.174194 
	C315.724518,464.392883 322.884216,461.753540 330.372986,459.063873 
	C331.139557,458.953552 331.577118,458.893524 332.281189,458.873749 
	C332.738525,458.621674 332.929321,458.329315 333.487854,458.017029 
	C338.273132,455.680634 342.690674,453.364258 347.475891,451.022461 
	C352.577148,448.367462 357.310760,445.737793 362.399750,443.056091 
	C365.186005,441.371826 367.616882,439.739594 370.368408,437.972748 
	C372.808746,436.261261 374.928467,434.684418 377.369446,432.971832 
	C380.165100,430.904510 382.639465,428.972900 385.430603,426.912781 
	C388.202789,424.869598 390.658203,422.954926 393.414276,420.924286 
	C395.159515,419.241486 396.604065,417.674652 398.357910,415.980560 
	C400.124908,414.606750 401.582611,413.360199 403.344025,411.989075 
	C405.111633,410.280762 406.575562,408.697021 408.351440,406.981659 
	C410.814301,404.245728 412.965210,401.641449 415.406433,398.929260 
	C416.499969,397.896942 417.303192,396.972534 418.392303,395.943176 
	C419.465820,394.931610 420.253448,394.025055 421.354248,392.969055 
	C423.128693,390.581207 424.589996,388.342743 426.366577,385.969666 
	C428.827026,382.902649 430.972229,379.970215 433.430359,376.906952 
	C435.178406,374.553009 436.613495,372.329926 438.364929,369.951843 
	C440.159180,367.212097 441.637115,364.627380 443.429871,361.885559 
	C446.773804,355.819275 449.802917,349.910095 452.988495,343.672455 
	C454.801331,339.576599 456.457672,335.809204 458.433533,331.875519 
	C459.873566,328.486938 460.994019,325.264587 462.438843,321.869080 
	C463.877228,318.146606 464.991211,314.597290 466.441895,310.854492 
	C467.796570,306.441101 468.814575,302.221252 469.912659,297.612244 
	C470.936127,293.814758 471.879578,290.406372 472.900024,286.579803 
	C473.596100,281.775330 474.215210,277.389069 474.909454,272.592255 
	C475.656403,271.454498 476.328217,270.727264 477.000000,270.000000 
z"/>
<path fill="#000000" opacity="1.000000" stroke="none" 
	d="
M0.999999,208.000000 
	C1.000000,139.072968 1.000000,70.145927 1.000000,1.000000 
	C69.687408,1.000000 138.375046,1.000000 207.520523,1.404151 
	C206.810577,2.206645 205.668762,2.725580 204.470779,2.983772 
	C196.630295,4.673543 188.777664,6.306914 180.534210,7.985294 
	C169.407639,11.642384 158.675873,15.272890 147.572113,18.943729 
	C143.783539,20.624462 140.366974,22.264864 136.592865,23.967110 
	C131.813980,26.316294 127.392624,28.603634 122.619545,30.958702 
	C116.862450,34.404377 111.457069,37.782318 105.720215,41.229256 
	C101.227562,44.512642 97.066376,47.727036 92.602898,51.095238 
	C88.499313,54.482300 84.698029,57.715553 80.601601,61.105186 
	C77.165298,64.161285 74.024139,67.060997 70.593842,70.107574 
	C68.502167,72.156570 66.699646,74.058693 64.612320,76.100906 
	C63.534451,77.458435 62.741371,78.675880 61.653423,80.043983 
	C59.626537,82.131767 57.894520,84.068893 56.004105,86.306198 
	C54.521648,88.390465 53.197586,90.174545 51.590637,92.093887 
	C50.260757,93.487953 49.213772,94.746758 48.015579,96.300858 
	C47.225231,97.697418 46.586086,98.798683 45.645908,100.048447 
	C43.951515,102.133049 42.558155,104.069153 41.012131,106.304985 
	C40.200729,107.721893 39.541992,108.839073 38.580582,110.104019 
	C37.483898,111.817154 36.689884,113.382530 35.591217,115.095917 
	C33.913212,117.497292 32.539860,119.750664 31.013199,122.313156 
	C29.962132,124.416443 29.064373,126.210609 28.005957,128.324677 
	C26.524124,131.416748 25.202950,134.188919 23.580557,137.140854 
	C22.149540,140.198257 21.019741,143.075897 19.584656,146.133545 
	C18.241917,149.210892 17.204470,152.108246 16.004028,155.332428 
	C14.949066,158.107285 14.057096,160.555298 13.002308,163.330658 
	C12.281646,165.439514 11.723800,167.221008 11.090553,169.358917 
	C10.399509,171.479095 9.783865,173.242844 9.100166,175.391815 
	C8.411906,178.186829 7.791700,180.596649 7.102478,183.400604 
	C6.650374,185.851181 6.267287,187.907623 5.557544,190.163391 
	C4.876303,192.575836 4.521719,194.788956 4.097663,197.400925 
	C3.741068,199.867264 3.453946,201.934769 3.096209,204.416779 
	C2.350395,205.887527 1.675197,206.943756 0.999999,208.000000 
z"/>
<path fill="#000000" opacity="1.000000" stroke="none" 
	d="
M208.000000,477.000000 
	C139.072983,477.000000 70.145950,477.000000 1.000000,477.000000 
	C1.000000,408.312592 1.000000,339.624969 1.301484,270.157532 
	C2.123826,270.586090 2.644685,271.794403 3.094699,273.422241 
	C3.979056,278.576630 4.934258,283.311462 5.937427,288.458923 
	C6.953853,292.596313 7.922312,296.321075 8.938321,300.448059 
	C9.712897,303.567352 10.439922,306.284393 11.100929,309.384796 
	C12.745787,314.178314 14.456661,318.588501 16.100800,323.375854 
	C17.319958,326.850830 18.605850,329.948639 19.950146,333.291565 
	C20.061749,333.695953 20.114944,333.855255 20.135796,334.278595 
	C20.389788,334.734253 20.676126,334.925934 20.983299,335.451538 
	C21.630198,336.869720 22.256262,337.953949 22.938538,339.399506 
	C24.290268,342.186401 25.585785,344.612030 26.938881,347.404541 
	C29.293762,351.862915 31.591068,355.954437 33.941246,360.381653 
	C34.623611,361.824066 35.253109,362.930756 36.016487,364.348206 
	C37.156250,366.106445 38.162132,367.553894 39.191353,369.342407 
	C41.103828,372.134979 42.992966,374.586487 44.939728,377.390625 
	C47.315453,380.531555 49.633553,383.319855 51.977470,386.442902 
	C53.297489,388.198853 54.591694,389.620056 55.939949,391.377319 
	C57.292885,393.157349 58.591770,394.601349 60.004841,396.334198 
	C61.041080,397.428314 61.963131,398.233551 62.940384,399.383545 
	C64.960342,401.834015 66.925095,403.939697 69.015358,406.348267 
	C70.723656,408.115906 72.306458,409.580658 74.019981,411.354492 
	C75.729294,412.789551 77.307869,413.915527 79.015640,415.349426 
	C81.079529,417.473419 83.014221,419.289490 85.094086,421.416870 
	C88.144424,423.856384 91.049583,425.984558 94.087059,428.427979 
	C96.464638,430.199585 98.709900,431.655945 101.086639,433.428101 
	C103.464020,435.199829 105.709915,436.655792 108.102333,438.426270 
	C110.462570,439.841003 112.676300,440.941193 115.032959,442.367188 
	C120.436455,445.500336 125.697014,448.307678 131.112579,451.437622 
	C136.140228,453.853943 141.012863,455.947693 146.048889,458.373932 
	C154.438599,461.486664 162.664948,464.266907 171.074142,467.395935 
	C183.041061,470.171661 194.830032,472.575684 206.594482,475.094177 
	C207.172501,475.217926 207.536392,476.341827 208.000000,477.000000 
z"/>
<path fill="#ED738B" opacity="1.000000" stroke="none" 
	d="
M477.000000,244.000000 
	C477.000000,248.689255 477.000000,253.378494 476.531342,258.533875 
	C455.276520,259.000000 434.490356,259.022980 413.704224,258.994202 
	C387.598724,258.958038 361.493286,258.879425 335.478516,258.402222 
	C336.360840,253.322815 337.152466,248.660294 338.416260,243.998199 
	C384.925629,243.999084 430.962799,243.999542 477.000000,244.000000 
z"/>
<path fill="#ED738B" opacity="1.000000" stroke="none" 
	d="
M1.000000,259.000000 
	C1.000000,253.977905 1.000000,248.955811 1.468657,243.466858 
	C44.816700,243.000275 87.696083,243.000549 130.692688,243.426788 
	C131.471771,248.569199 132.133636,253.285629 132.396988,258.078247 
	C129.711807,258.436279 127.425446,258.961182 125.138458,258.963928 
	C83.759018,259.013428 42.379501,259.000000 1.000000,259.000000 
z"/>
<path fill="#E27091" opacity="1.000000" stroke="none" 
	d="
M477.000000,243.533875 
	C430.962799,243.999542 384.925629,243.999084 338.373779,243.533691 
	C337.931549,238.378738 338.003967,233.688690 338.540253,228.998962 
	C385.002747,228.999512 431.001373,228.999756 477.000000,229.000000 
	C477.000000,233.689255 477.000000,238.378510 477.000000,243.533875 
z"/>
<path fill="#E27091" opacity="1.000000" stroke="none" 
	d="
M130.575470,243.000839 
	C87.696083,243.000549 44.816700,243.000275 1.468657,243.000000 
	C1.000000,237.977905 1.000000,232.955811 1.468657,227.466858 
	C44.830051,226.999329 87.722786,226.998642 130.681839,227.406891 
	C130.690598,232.877472 130.633041,237.939163 130.575470,243.000839 
z"/>
<path fill="#F77686" opacity="1.000000" stroke="none" 
	d="
M335.387817,258.819122 
	C361.493286,258.879425 387.598724,258.958038 413.704224,258.994202 
	C434.490356,259.022980 455.276520,259.000000 476.531342,259.000000 
	C477.000000,262.361298 477.000000,265.722565 477.000000,269.541931 
	C476.328217,270.727264 475.656403,271.454498 474.451538,272.591492 
	C426.325012,273.002136 378.731476,273.003021 331.155640,272.630188 
	C332.578125,267.777344 333.982971,263.298218 335.387817,258.819122 
z"/>
<path fill="#F77686" opacity="1.000000" stroke="none" 
	d="
M1.000000,259.458069 
	C42.379501,259.000000 83.759018,259.013428 125.138458,258.963928 
	C127.425446,258.961182 129.711807,258.436279 132.517593,258.446899 
	C134.330490,263.160736 135.624237,267.582031 136.510590,272.071838 
	C133.650925,272.426880 131.198959,272.960205 128.746353,272.963257 
	C86.886131,273.015350 45.025829,273.001801 3.165543,273.002716 
	C2.644685,271.794403 2.123826,270.586090 1.301484,269.688904 
	C1.000000,266.638702 1.000000,263.277435 1.000000,259.458069 
z"/>
<path fill="#D76D96" opacity="1.000000" stroke="none" 
	d="
M130.615509,226.997971 
	C87.722786,226.998642 44.830051,226.999329 1.468657,227.000000 
	C1.000000,222.643097 1.000000,218.286194 1.468559,213.475983 
	C45.530254,213.013977 89.123390,213.005280 132.686615,213.385040 
	C131.976303,218.181641 131.295914,222.589813 130.615509,226.997971 
z"/>
<path fill="#D96E95" opacity="1.000000" stroke="none" 
	d="
M477.000000,228.536819 
	C431.001373,228.999756 385.002747,228.999512 338.442688,228.596924 
	C337.357819,224.128723 336.834412,220.062881 336.760193,215.997726 
	C383.806244,215.998947 430.403107,215.999466 477.000000,216.000000 
	C477.000000,220.024551 477.000000,224.049088 477.000000,228.536819 
z"/>
<path fill="#D16B99" opacity="1.000000" stroke="none" 
	d="
M477.000000,215.555832 
	C430.403107,215.999466 383.806244,215.998947 336.636047,215.620056 
	C335.402161,212.160263 334.741577,209.078827 334.544556,205.998062 
	C345.575439,205.999023 356.142792,205.999405 366.710114,205.999588 
	C377.547699,205.999786 388.385254,205.999863 399.222839,205.999878 
	C414.235199,205.999893 429.248016,206.062973 444.259613,205.957184 
	C448.213074,205.929321 452.158478,205.212738 456.115387,205.107376 
	C462.350922,204.941360 468.593109,205.025040 474.832458,205.003006 
	C475.354279,206.208328 475.876099,207.413651 476.698975,208.309479 
	C477.000000,210.370560 477.000000,212.741104 477.000000,215.555832 
z"/>
<path fill="#CF6B9A" opacity="1.000000" stroke="none" 
	d="
M132.716522,212.996597 
	C89.123390,213.005280 45.530254,213.013977 1.468559,213.011337 
	C1.000000,211.611115 1.000000,210.222214 0.999999,208.416656 
	C1.675197,206.943756 2.350395,205.887527 3.554015,204.416138 
	C47.702328,204.000244 91.322220,203.999496 134.938019,204.379547 
	C134.194809,207.505753 133.455673,210.251175 132.716522,212.996597 
z"/>
<path fill="#FCC3DB" opacity="1.000000" stroke="none" 
	d="
M208.468658,477.000000 
	C207.536392,476.341827 207.172501,475.217926 206.594482,475.094177 
	C194.830032,472.575684 183.041061,470.171661 171.464035,467.226196 
	C173.629807,466.471771 175.587158,466.046509 177.547501,466.032104 
	C187.148926,465.961365 196.752182,466.088928 206.352905,465.980743 
	C224.072876,465.781097 241.791260,465.283173 259.510834,465.256805 
	C273.552094,465.235870 287.595428,465.684723 301.634399,466.054871 
	C303.734955,466.110291 305.816711,466.877991 307.907166,467.316193 
	C295.718781,469.886963 283.527374,472.443817 271.349518,475.063538 
	C270.628387,475.218658 270.015869,475.878815 269.676392,476.651978 
	C249.645767,477.000000 229.291550,477.000000 208.468658,477.000000 
z"/>
<path fill="#071278" opacity="1.000000" stroke="none" 
	d="
M180.929001,7.958711 
	C188.777664,6.306914 196.630295,4.673543 204.470779,2.983772 
	C205.668762,2.725580 206.810577,2.206645 207.989182,1.404151 
	C228.354233,1.000000 248.708450,1.000000 269.531342,0.999998 
	C272.533264,1.914409 275.006378,3.089472 277.611938,3.690512 
	C283.555328,5.061522 289.563660,6.151271 295.486145,7.923084 
	C274.053345,8.858798 252.681152,9.366024 231.306244,9.542258 
	C218.534531,9.647559 205.756882,9.306558 192.985474,9.011502 
	C188.960693,8.918519 184.947495,8.323798 180.929001,7.958711 
z"/>
<path fill="#3B2B90" opacity="1.000000" stroke="none" 
	d="
M80.896744,60.948807 
	C84.698029,57.715553 88.499313,54.482300 92.991364,51.270287 
	C95.476364,51.527657 97.270546,51.969765 99.064880,51.970409 
	C192.305984,52.003880 285.547089,52.006824 378.788177,51.955734 
	C380.890808,51.954582 382.993011,51.295273 385.095428,50.942978 
	C388.994751,54.077087 392.894104,57.211189 396.558228,60.818962 
	C394.528290,61.528408 392.733612,61.969925 390.938843,61.970509 
	C289.695099,62.003601 188.451340,62.006302 87.207619,61.956104 
	C85.103828,61.955063 83.000359,61.299191 80.896744,60.948807 
z"/>
<path fill="#453095" opacity="1.000000" stroke="none" 
	d="
M80.601601,61.105186 
	C83.000359,61.299191 85.103828,61.955063 87.207619,61.956104 
	C188.451340,62.006302 289.695099,62.003601 390.938843,61.970509 
	C392.733612,61.969925 394.528290,61.528408 396.712708,61.119949 
	C400.337158,63.751625 403.571930,66.555984 406.563782,69.723740 
	C401.098022,70.391312 395.875427,70.955620 390.652313,70.960266 
	C323.587952,71.019951 256.523499,70.999687 189.459076,70.999687 
	C159.214554,70.999687 128.970032,70.999687 98.725502,70.999687 
	C92.231232,70.999687 85.734657,71.100868 79.243782,70.952393 
	C76.450745,70.888496 73.669556,70.307030 70.882980,69.960709 
	C74.024139,67.060997 77.165298,64.161285 80.601601,61.105186 
z"/>
<path fill="#864FA7" opacity="1.000000" stroke="none" 
	d="
M23.881777,136.961090 
	C25.202950,134.188919 26.524124,131.416748 28.463215,128.323242 
	C169.331772,128.002823 309.582397,128.003723 449.833038,128.004623 
	C450.557190,129.427185 451.281342,130.849747 451.586456,132.627747 
	C431.702789,132.988800 412.238129,132.998077 392.773499,132.999237 
	C351.015961,133.001709 309.258392,132.975403 267.501129,133.082230 
	C265.665955,133.086929 263.833832,134.293640 261.600281,134.951599 
	C249.652725,132.117157 237.933640,130.121445 226.094345,131.949768 
	C216.114334,133.490967 206.296997,136.085495 196.000519,138.030624 
	C193.308304,137.564987 191.023514,137.038223 188.738144,137.035767 
	C133.786072,136.976868 78.833916,136.974060 23.881777,136.961090 
z"/>
<path fill="#31268B" opacity="1.000000" stroke="none" 
	d="
M384.936584,50.641052 
	C382.993011,51.295273 380.890808,51.954582 378.788177,51.955734 
	C285.547089,52.006824 192.305984,52.003880 99.064880,51.970409 
	C97.270546,51.969765 95.476364,51.527657 93.293655,51.116470 
	C97.066376,47.727036 101.227562,44.512642 106.050919,41.465752 
	C108.529190,41.755600 110.345261,41.984592 112.161377,41.984970 
	C196.793777,42.002560 281.426178,42.001656 366.058563,41.992363 
	C368.222290,41.992126 370.385986,41.874722 372.549713,41.811958 
	C376.625702,44.654350 380.701721,47.496746 384.936584,50.641052 
z"/>
<path fill="#7F4CA8" opacity="1.000000" stroke="none" 
	d="
M449.792419,127.665154 
	C309.582397,128.003723 169.331772,128.002823 28.623871,128.003357 
	C29.064373,126.210609 29.962132,124.416443 31.470604,122.311943 
	C74.201485,122.000977 116.321640,121.999908 158.441803,121.999786 
	C251.672165,121.999504 344.902527,122.013725 438.132812,121.922035 
	C440.563263,121.919640 442.992554,120.763245 445.422394,120.145020 
	C445.422394,120.145027 445.816101,120.399719 445.981903,120.845154 
	C446.309357,121.574471 446.528900,121.802628 446.806305,121.975052 
	C447.788147,123.758598 448.769958,125.542145 449.792419,127.665154 
z"/>
<path fill="#794AA9" opacity="1.000000" stroke="none" 
	d="
M445.270020,119.868202 
	C442.992554,120.763245 440.563263,121.919640 438.132812,121.922035 
	C344.902527,122.013725 251.672165,121.999504 158.441803,121.999786 
	C116.321640,121.999908 74.201485,122.000977 31.623915,122.002823 
	C32.539860,119.750664 33.913212,117.497292 35.980537,115.267670 
	C38.636936,115.527580 40.599308,115.970016 42.561783,115.970497 
	C173.524048,116.003021 304.486298,116.005333 435.448578,115.958549 
	C437.903900,115.957672 440.359070,115.338066 442.814270,115.007141 
	C443.582062,116.535225 444.349854,118.063309 445.270020,119.868202 
z"/>
<path fill="#7347A9" opacity="1.000000" stroke="none" 
	d="
M442.774261,114.685913 
	C440.359070,115.338066 437.903900,115.957672 435.448578,115.958549 
	C304.486298,116.005333 173.524048,116.003021 42.561783,115.970497 
	C40.599308,115.970016 38.636936,115.527580 36.285194,115.119652 
	C36.689884,113.382530 37.483898,111.817154 39.016281,110.115662 
	C44.519547,109.986397 49.286404,109.907867 54.048958,110.016937 
	C66.000267,110.290634 77.949097,110.874596 89.899940,110.903061 
	C99.622688,110.926201 109.346375,110.064499 119.070580,110.044159 
	C165.959824,109.946068 212.849365,110.000015 259.738800,110.000015 
	C278.977875,110.000015 298.216980,110.000000 317.456055,110.000000 
	C344.357117,110.000000 371.258179,110.004723 398.159241,109.998085 
	C411.811676,109.994713 425.464111,109.970871 439.116577,109.956276 
	C440.322449,111.425743 441.528320,112.895218 442.774261,114.685913 
z"/>
<path fill="#272187" opacity="1.000000" stroke="none" 
	d="
M372.318787,41.531330 
	C370.385986,41.874722 368.222290,41.992126 366.058563,41.992363 
	C281.426178,42.001656 196.793777,42.002560 112.161377,41.984970 
	C110.345261,41.984592 108.529190,41.755600 106.382401,41.396759 
	C111.457069,37.782318 116.862450,34.404377 122.732430,31.352388 
	C124.855354,32.118809 126.513344,32.943104 128.172043,32.944542 
	C201.734024,33.008381 275.296051,33.012028 348.858002,32.941109 
	C351.095032,32.938953 353.331177,32.069164 355.567749,31.603889 
	C361.074463,34.819496 366.581177,38.035099 372.318787,41.531330 
z"/>
<path fill="#5A3B9F" opacity="1.000000" stroke="none" 
	d="
M51.873524,91.958633 
	C53.197586,90.174545 54.521648,88.390465 56.461266,86.304268 
	C178.663513,86.003349 300.250214,86.004547 421.836914,86.005745 
	C423.227692,87.763458 424.618500,89.521172 425.591034,91.630402 
	C300.739716,91.974152 176.306610,91.966393 51.873524,91.958633 
z"/>
<path fill="#6A43A7" opacity="1.000000" stroke="none" 
	d="
M41.164795,106.005257 
	C42.558155,104.069153 43.951515,102.133049 45.954853,100.336227 
	C48.532600,100.650345 50.500336,100.977814 52.468140,100.978195 
	C176.682129,101.002419 300.896118,101.010460 425.110046,100.923431 
	C427.542267,100.921730 429.973694,99.775291 432.405487,99.162933 
	C433.850342,101.220909 435.295197,103.278893 436.330017,105.669495 
	C304.334900,106.003159 172.749847,106.004211 41.164795,106.005257 
z"/>
<path fill="#6440A4" opacity="1.000000" stroke="none" 
	d="
M432.244568,98.924591 
	C429.973694,99.775291 427.542267,100.921730 425.110046,100.923431 
	C300.896118,101.010460 176.682129,101.002419 52.468140,100.978195 
	C50.500336,100.977814 48.532600,100.650345 46.255886,100.187729 
	C46.586086,98.798683 47.225231,97.697418 48.470177,96.299149 
	C175.995163,96.003281 302.914337,96.004425 429.833527,96.005569 
	C430.583557,96.899132 431.333588,97.792694 432.244568,98.924591 
z"/>
<path fill="#55389D" opacity="1.000000" stroke="none" 
	d="
M421.753174,85.684799 
	C300.250214,86.004547 178.663513,86.003349 56.619659,86.004089 
	C57.894520,84.068893 59.626537,82.131767 61.961418,80.333359 
	C64.199425,80.647942 65.834541,80.977417 67.469719,80.977760 
	C181.576981,81.001869 295.684235,81.005325 409.791473,80.955673 
	C411.895477,80.954758 413.999207,80.295807 416.103058,79.943901 
	C417.958527,81.750549 419.813995,83.557198 421.753174,85.684799 
z"/>
<path fill="#1E1D82" opacity="1.000000" stroke="none" 
	d="
M355.385590,31.307358 
	C353.331177,32.069164 351.095032,32.938953 348.858002,32.941109 
	C275.296051,33.012028 201.734024,33.008381 128.172043,32.944542 
	C126.513344,32.943104 124.855354,32.118809 123.084152,31.284660 
	C127.392624,28.603634 131.813980,26.316294 136.902908,24.255230 
	C138.372635,24.651711 139.174713,24.970638 139.976944,24.970947 
	C205.033875,24.995892 270.090851,25.008190 335.147644,24.910095 
	C336.442444,24.908142 337.735260,23.593361 339.029022,22.891071 
	C344.420502,25.597658 349.811951,28.304243 355.385590,31.307358 
z"/>
<path fill="#4F359A" opacity="1.000000" stroke="none" 
	d="
M415.954163,79.637283 
	C413.999207,80.295807 411.895477,80.954758 409.791473,80.955673 
	C295.684235,81.005325 181.576981,81.001869 67.469719,80.977760 
	C65.834541,80.977417 64.199425,80.647942 62.256287,80.182701 
	C62.741371,78.675880 63.534451,77.458435 65.088478,76.112114 
	C178.933044,75.988800 292.016663,76.004135 405.100220,75.924774 
	C407.207886,75.923294 409.314789,74.797318 411.422028,74.195999 
	C412.883118,75.907555 414.344208,77.619118 415.954163,79.637283 
z"/>
<path fill="#11167C" opacity="1.000000" stroke="none" 
	d="
M180.534210,7.985295 
	C184.947495,8.323798 188.960693,8.918519 192.985474,9.011502 
	C205.756882,9.306558 218.534531,9.647559 231.306244,9.542258 
	C252.681152,9.366024 274.053345,8.858798 295.739105,8.205642 
	C307.448700,11.611131 318.845856,15.301858 329.931915,19.407478 
	C329.123199,19.868549 328.625610,19.955040 328.128021,19.955198 
	C269.461700,19.973867 210.795380,19.993708 152.129089,19.952919 
	C150.733841,19.951950 149.339081,19.268515 147.944092,18.903397 
	C158.675873,15.272890 169.407639,11.642384 180.534210,7.985295 
z"/>
<path fill="#4C3498" opacity="1.000000" stroke="none" 
	d="
M411.255066,73.955864 
	C409.314789,74.797318 407.207886,75.923294 405.100220,75.924774 
	C292.016663,76.004135 178.933044,75.988800 65.373276,75.972031 
	C66.699646,74.058693 68.502167,72.156570 70.593842,70.107574 
	C73.669556,70.307030 76.450745,70.888496 79.243782,70.952393 
	C85.734657,71.100868 92.231232,70.999687 98.725502,70.999687 
	C128.970032,70.999687 159.214554,70.999687 189.459076,70.999687 
	C256.523499,70.999687 323.587952,71.019951 390.652313,70.960266 
	C395.875427,70.955620 401.098022,70.391312 406.718079,70.023636 
	C408.439575,71.212006 409.763855,72.463860 411.255066,73.955864 
z"/>
<path fill="#6E45A9" opacity="1.000000" stroke="none" 
	d="
M41.012131,106.304985 
	C172.749847,106.004211 304.334900,106.003159 436.377502,106.003693 
	C437.558960,107.101028 438.282898,108.196785 439.061707,109.624405 
	C425.464111,109.970871 411.811676,109.994713 398.159241,109.998085 
	C371.258179,110.004723 344.357117,110.000000 317.456055,110.000000 
	C298.216980,110.000000 278.977875,110.000015 259.738800,110.000015 
	C212.849365,110.000015 165.959824,109.946068 119.070580,110.044159 
	C109.346375,110.064499 99.622688,110.926201 89.899940,110.903061 
	C77.949097,110.874596 66.000267,110.290634 54.048958,110.016937 
	C49.286404,109.907867 44.519547,109.986397 39.318954,109.967896 
	C39.541992,108.839073 40.200729,107.721893 41.012131,106.304985 
z"/>
<path fill="#603EA2" opacity="1.000000" stroke="none" 
	d="
M429.800598,95.692558 
	C302.914337,96.004425 175.995163,96.003281 48.621384,96.003845 
	C49.213772,94.746758 50.260757,93.487953 51.590637,92.093887 
	C176.306610,91.966393 300.739716,91.974152 425.649292,91.969826 
	C427.339752,93.098343 428.553741,94.238945 429.800598,95.692558 
z"/>
<path fill="#B762A0" opacity="1.000000" stroke="none" 
	d="
M468.833801,175.006500 
	C469.547943,178.072266 470.262115,181.138046 470.446716,184.603333 
	C424.337311,185.001907 378.757416,184.985001 333.177673,185.044235 
	C330.740448,185.047409 328.304077,185.691849 325.614258,185.819763 
	C323.510010,182.422226 321.658813,179.242676 320.220398,175.994720 
	C327.000153,175.632111 333.366302,175.121048 339.734283,175.096527 
	C348.429352,175.063034 357.126190,175.558182 365.821625,175.537979 
	C376.625061,175.512863 387.427094,175.112152 398.230988,175.022247 
	C409.867218,174.925400 421.506042,174.904678 433.141388,175.044647 
	C438.261658,175.106216 443.377747,175.929901 448.492859,175.900894 
	C455.274658,175.862427 462.053619,175.327881 468.833801,175.006500 
z"/>
<path fill="#9755A5" opacity="1.000000" stroke="none" 
	d="
M457.829071,144.004654 
	C458.548523,145.730331 459.267944,147.455994 459.766663,149.841797 
	C457.000336,151.001251 454.455536,151.931763 451.909088,151.936203 
	C402.660187,152.022278 353.411072,151.987015 304.162109,152.045364 
	C302.101379,152.047806 300.041443,152.714951 297.654175,152.963104 
	C294.209106,150.602509 291.091034,148.351242 288.235352,145.816132 
	C291.232849,145.021729 293.967255,144.070175 296.703125,144.065781 
	C350.411682,143.979492 404.120392,144.003311 457.829071,144.004654 
z"/>
<path fill="#C1669F" opacity="1.000000" stroke="none" 
	d="
M325.867310,186.037750 
	C328.304077,185.691849 330.740448,185.047409 333.177673,185.044235 
	C378.757416,184.985001 424.337311,185.001907 470.374878,185.004669 
	C471.546906,187.412750 472.261139,189.819046 472.447937,192.612793 
	C424.354492,192.997330 376.788483,192.994446 329.018738,192.703674 
	C327.832458,190.289749 326.849884,188.163742 325.867310,186.037750 
z"/>
<path fill="#AE5FA1" opacity="1.000000" stroke="none" 
	d="
M468.781952,174.639404 
	C462.053619,175.327881 455.274658,175.862427 448.492859,175.900894 
	C443.377747,175.929901 438.261658,175.106216 433.141388,175.044647 
	C421.506042,174.904678 409.867218,174.925400 398.230988,175.022247 
	C387.427094,175.112152 376.625061,175.512863 365.821625,175.537979 
	C357.126190,175.558182 348.429352,175.063034 339.734283,175.096527 
	C333.366302,175.121048 327.000153,175.632111 319.943024,175.818542 
	C317.400574,173.176483 315.548309,170.642227 314.182983,168.079681 
	C365.388153,168.036316 416.106354,168.021210 466.824524,168.006104 
	C467.459717,170.094833 468.094910,172.183563 468.781952,174.639404 
z"/>
<path fill="#9153A6" opacity="1.000000" stroke="none" 
	d="
M457.789734,143.663116 
	C404.120392,144.003311 350.411682,143.979492 296.703125,144.065781 
	C293.967255,144.070175 291.232849,145.021729 287.890076,145.737976 
	C282.841339,143.634308 278.400238,141.324951 274.344055,138.846283 
	C276.856812,138.451355 278.984528,138.030075 281.112549,138.028687 
	C336.341400,137.992538 391.570282,138.013382 446.799103,137.955612 
	C449.234009,137.953064 451.668274,137.301208 454.102844,136.951782 
	C455.318665,139.075058 456.534515,141.198334 457.789734,143.663116 
z"/>
<path fill="#CB6A9D" opacity="1.000000" stroke="none" 
	d="
M474.903931,204.604279 
	C468.593109,205.025040 462.350922,204.941360 456.115387,205.107376 
	C452.158478,205.212738 448.213074,205.929321 444.259613,205.957184 
	C429.248016,206.062973 414.235199,205.999893 399.222839,205.999878 
	C388.385254,205.999863 377.547699,205.999786 366.710114,205.999588 
	C356.142792,205.999405 345.575439,205.999023 334.355530,205.685303 
	C333.066925,203.265717 332.430908,201.159546 332.182678,198.895218 
	C339.115814,198.491272 345.659576,198.108521 352.206940,198.031357 
	C362.379791,197.911469 372.556793,197.885406 382.728760,198.038666 
	C389.809692,198.145340 396.885895,198.881989 403.962830,198.861496 
	C412.508545,198.836777 421.050964,198.125198 429.598083,198.040253 
	C444.342407,197.893723 459.089294,198.001541 473.835083,198.002625 
	C474.215210,200.070267 474.595306,202.137894 474.903931,204.604279 
z"/>
<path fill="#171A7F" opacity="1.000000" stroke="none" 
	d="
M147.572113,18.943729 
	C149.339081,19.268515 150.733841,19.951950 152.129089,19.952919 
	C210.795380,19.993708 269.461700,19.973867 328.128021,19.955198 
	C328.625610,19.955040 329.123199,19.868549 330.150635,19.702297 
	C333.322937,20.499525 335.965424,21.416822 338.818451,22.612595 
	C337.735260,23.593361 336.442444,24.908142 335.147644,24.910095 
	C270.090851,25.008190 205.033875,24.995892 139.976944,24.970947 
	C139.174713,24.970638 138.372635,24.651711 137.260437,24.193386 
	C140.366974,22.264864 143.783539,20.624462 147.572113,18.943729 
z"/>
<path fill="#9E58A4" opacity="1.000000" stroke="none" 
	d="
M297.981140,153.072418 
	C300.041443,152.714951 302.101379,152.047806 304.162109,152.045364 
	C353.411072,151.987015 402.660187,152.022278 451.909088,151.936203 
	C454.455536,151.931763 457.000336,151.001251 459.797852,150.201172 
	C460.944214,152.029907 461.838623,154.159393 462.354828,156.645264 
	C452.362579,157.334427 442.750214,157.881012 433.134186,157.955109 
	C413.631470,158.105408 394.126190,158.091263 374.623108,157.966812 
	C362.337372,157.888428 350.053772,157.292374 337.769073,157.287888 
	C326.484589,157.283768 315.199890,157.760849 303.620728,157.890564 
	C301.544525,156.194290 299.762817,154.633347 297.981140,153.072418 
z"/>
<path fill="#8950A7" opacity="1.000000" stroke="none" 
	d="
M454.053894,136.620117 
	C451.668274,137.301208 449.234009,137.953064 446.799103,137.955612 
	C391.570282,138.013382 336.341400,137.992538 281.112549,138.028687 
	C278.984528,138.030075 276.856812,138.451355 273.971649,138.815887 
	C269.476349,137.616669 265.738312,136.278549 262.000305,134.940430 
	C263.833832,134.293640 265.665955,133.086929 267.501129,133.082230 
	C309.258392,132.975403 351.015961,133.001709 392.773499,132.999237 
	C412.238129,132.998077 431.702789,132.988800 451.644226,132.973114 
	C452.748993,134.071503 453.376984,135.179977 454.053894,136.620117 
z"/>
<path fill="#A75CA2" opacity="1.000000" stroke="none" 
	d="
M466.777039,167.651550 
	C416.106354,168.021210 365.388153,168.036316 313.921936,167.907761 
	C311.754089,166.184982 310.334229,164.605850 309.341553,163.003876 
	C312.889252,162.654007 316.009460,162.045853 319.130371,162.042084 
	C367.697815,161.983261 416.265411,162.002640 464.832947,162.003952 
	C465.465149,163.768295 466.097321,165.532639 466.777039,167.651550 
z"/>
<path fill="#C5689E" opacity="1.000000" stroke="none" 
	d="
M473.905823,197.629822 
	C459.089294,198.001541 444.342407,197.893723 429.598083,198.040253 
	C421.050964,198.125198 412.508545,198.836777 403.962830,198.861496 
	C396.885895,198.881989 389.809692,198.145340 382.728760,198.038666 
	C372.556793,197.885406 362.379791,197.911469 352.206940,198.031357 
	C345.659576,198.108521 339.115814,198.491272 331.957245,198.654724 
	C330.636841,196.712128 329.929657,194.851852 329.222443,192.991577 
	C376.788483,192.994446 424.354492,192.997330 472.378540,193.000671 
	C473.216522,194.419769 473.596527,195.838379 473.905823,197.629822 
z"/>
<path fill="#A25AA3" opacity="1.000000" stroke="none" 
	d="
M464.794983,161.659790 
	C416.265411,162.002640 367.697815,161.983261 319.130371,162.042084 
	C316.009460,162.045853 312.889252,162.654007 309.045288,162.874741 
	C306.852997,161.187607 305.384155,159.606750 303.915283,158.025909 
	C315.199890,157.760849 326.484589,157.283768 337.769073,157.287888 
	C350.053772,157.292374 362.337372,157.888428 374.623108,157.966812 
	C394.126190,158.091263 413.631470,158.105408 433.134186,157.955109 
	C442.750214,157.881012 452.362579,157.334427 462.405029,157.002563 
	C463.474609,158.440842 464.115814,159.878220 464.794983,161.659790 
z"/>
<path fill="#794AA9" opacity="1.000000" stroke="none" 
	d="
M446.800781,121.712791 
	C446.528900,121.802628 446.309357,121.574471 446.050110,121.069458 
	C446.233429,121.049065 446.514374,121.249794 446.800781,121.712791 
z"/>
<path fill="#FDAA6B" opacity="1.000000" stroke="none" 
	d="
M51.951664,386.108154 
	C49.633553,383.319855 47.315453,380.531555 45.369125,377.366364 
	C58.448193,376.718903 71.154686,376.298248 83.863068,376.230225 
	C92.415718,376.184448 100.972061,376.851532 109.524895,376.810638 
	C119.413254,376.763397 129.297928,376.165955 139.187225,376.033295 
	C150.028549,375.887787 160.875214,375.873901 171.716125,376.033752 
	C183.673004,376.210114 195.625305,376.864075 207.580917,376.903351 
	C216.631760,376.933105 225.685898,376.027283 234.736420,376.064453 
	C251.452881,376.133057 268.167114,376.752289 284.883575,376.820343 
	C294.935669,376.861267 304.990601,376.050873 315.043488,376.067963 
	C325.258698,376.085358 335.472321,376.873138 345.687897,376.903107 
	C353.914917,376.927246 362.144104,376.055725 370.371826,376.064301 
	C382.104218,376.076538 393.835358,376.578278 405.568604,376.779877 
	C414.750275,376.937653 423.934387,376.956970 433.117401,377.037811 
	C430.972229,379.970215 428.827026,382.902649 426.058777,385.681213 
	C423.966675,385.351593 422.497742,385.022156 421.028717,385.021881 
	C299.728455,384.998138 178.428162,384.995392 57.127911,385.045990 
	C55.402351,385.046722 53.677078,385.738770 51.951664,386.108154 
z"/>
<path fill="#FDA860" opacity="1.000000" stroke="none" 
	d="
M433.430359,376.906952 
	C423.934387,376.956970 414.750275,376.937653 405.568604,376.779877 
	C393.835358,376.578278 382.104218,376.076538 370.371826,376.064301 
	C362.144104,376.055725 353.914917,376.927246 345.687897,376.903107 
	C335.472321,376.873138 325.258698,376.085358 315.043488,376.067963 
	C304.990601,376.050873 294.935669,376.861267 284.883575,376.820343 
	C268.167114,376.752289 251.452881,376.133057 234.736420,376.064453 
	C225.685898,376.027283 216.631760,376.933105 207.580917,376.903351 
	C195.625305,376.864075 183.673004,376.210114 171.716125,376.033752 
	C160.875214,375.873901 150.028549,375.887787 139.187225,376.033295 
	C129.297928,376.165955 119.413254,376.763397 109.524895,376.810638 
	C100.972061,376.851532 92.415718,376.184448 83.863068,376.230225 
	C71.154686,376.298248 58.448193,376.718903 45.311501,377.013733 
	C42.992966,374.586487 41.103828,372.134979 39.649216,369.341949 
	C170.513779,369.000244 300.943817,368.994598 431.373840,369.046051 
	C433.598877,369.046906 435.823669,369.737885 438.048584,370.106842 
	C436.613495,372.329926 435.178406,374.553009 433.430359,376.906952 
z"/>
<path fill="#FDB086" opacity="1.000000" stroke="none" 
	d="
M68.889854,406.045380 
	C66.925095,403.939697 64.960342,401.834015 63.369530,399.359131 
	C66.866730,398.660370 69.989861,398.044098 73.113258,398.042664 
	C182.326508,397.993011 291.539764,397.988129 400.752991,398.045105 
	C405.540863,398.047607 410.328430,398.691864 415.116119,399.037170 
	C412.965210,401.641449 410.814301,404.245728 408.236694,406.590027 
	C405.985199,405.886658 404.160614,405.056335 402.335571,405.055298 
	C293.291168,404.993500 184.246735,404.994141 75.202332,405.043579 
	C73.098022,405.044525 70.994011,405.696930 68.889854,406.045380 
z"/>
<path fill="#FDA658" opacity="1.000000" stroke="none" 
	d="
M438.364899,369.951843 
	C435.823669,369.737885 433.598877,369.046906 431.373840,369.046051 
	C300.943817,368.994598 170.513779,369.000244 39.625877,369.000854 
	C38.162132,367.553894 37.156250,366.106445 36.492657,364.338257 
	C136.260666,364.011658 235.686386,364.017975 335.112030,363.939941 
	C338.023132,363.937653 340.933502,363.045624 344.121643,362.771088 
	C350.405701,366.899048 355.607697,364.530548 361.138000,360.923279 
	C386.526154,360.966705 411.424377,360.956573 436.322235,361.045135 
	C438.587646,361.053192 440.850830,361.695129 443.115051,362.042664 
	C441.637115,364.627380 440.159180,367.212097 438.364899,369.951843 
z"/>
<path fill="#FDAC75" opacity="1.000000" stroke="none" 
	d="
M51.977478,386.442902 
	C53.677078,385.738770 55.402351,385.046722 57.127911,385.045990 
	C178.428162,384.995392 299.728455,384.998138 421.028717,385.021881 
	C422.497742,385.022156 423.966675,385.351593 425.743469,385.815826 
	C424.589996,388.342743 423.128693,390.581207 421.239563,392.577026 
	C419.152466,391.889618 417.493378,391.056152 415.833923,391.055511 
	C295.851257,391.008423 175.868591,391.027527 55.885902,391.041260 
	C54.591694,389.620056 53.297489,388.198853 51.977478,386.442902 
z"/>
<path fill="#FCBCBE" opacity="1.000000" stroke="none" 
	d="
M130.957581,451.114990 
	C125.697014,448.307678 120.436455,445.500336 115.452888,442.297363 
	C117.521011,441.602081 119.311996,441.041351 121.103287,441.040344 
	C199.697693,440.996582 278.292145,440.988922 356.886414,441.089996 
	C358.606628,441.092194 360.325134,442.406097 362.044403,443.108124 
	C357.310760,445.737793 352.577148,448.367462 347.086060,450.852539 
	C344.533691,450.471954 342.738892,450.030579 340.943909,450.029633 
	C272.671204,449.994598 204.398499,449.991791 136.125824,450.046631 
	C134.402786,450.048004 132.680313,450.743347 130.957581,451.114990 
z"/>
<path fill="#FE7980" opacity="1.000000" stroke="none" 
	d="
M331.137970,273.003906 
	C378.731476,273.003021 426.325012,273.002136 474.376404,273.002014 
	C474.215210,277.389069 473.596100,281.775330 472.512512,286.509949 
	C469.439240,286.715332 466.830933,286.464691 464.221680,286.454620 
	C460.323975,286.439545 456.423492,286.716003 452.528107,286.647339 
	C446.788330,286.546234 441.049713,286.028748 435.314728,286.088104 
	C426.053772,286.183899 416.795563,286.855042 407.537384,286.829773 
	C393.601685,286.791748 379.668030,286.275818 365.731720,286.124542 
	C352.153442,285.977142 338.572937,286.032684 325.069214,285.654602 
	C327.142700,281.208038 329.140320,277.105957 331.137970,273.003906 
z"/>
<path fill="#FCB6A0" opacity="1.000000" stroke="none" 
	d="
M93.954750,428.112732 
	C91.049583,425.984558 88.144424,423.856384 85.401688,421.128235 
	C87.199120,420.352173 88.834084,420.022400 90.469139,420.022003 
	C189.244583,419.997498 288.020020,419.993530 386.795441,420.043396 
	C388.901672,420.044464 391.007568,420.693542 393.113617,421.040283 
	C390.658203,422.954926 388.202789,424.869598 385.010345,426.842743 
	C382.150360,426.600861 380.027496,426.038818 377.904388,426.037811 
	C285.537476,425.994141 193.170532,425.984955 100.803719,426.088501 
	C98.519974,426.091034 96.237709,427.408508 93.954750,428.112732 
z"/>
<path fill="#FE876F" opacity="1.000000" stroke="none" 
	d="
M469.832581,298.001373 
	C468.814575,302.221252 467.796570,306.441101 466.052307,310.684204 
	C463.866302,310.471863 462.406677,310.031799 460.946686,310.030518 
	C419.041992,309.993652 377.137207,309.969208 335.232849,310.093903 
	C333.131561,310.100159 331.034302,311.459839 328.638733,312.024567 
	C324.863983,308.404541 321.307983,305.021606 317.969818,301.435822 
	C317.263916,300.677582 317.355042,299.177307 317.542603,298.013916 
	C368.615051,298.006378 419.223846,298.003876 469.832581,298.001373 
z"/>
<path fill="#FF8177" opacity="1.000000" stroke="none" 
	d="
M469.912659,297.612244 
	C419.223846,298.003876 368.615051,298.006378 317.640625,297.691101 
	C319.847778,293.581909 322.420593,289.790497 324.993408,285.999115 
	C338.572937,286.032684 352.153442,285.977142 365.731720,286.124542 
	C379.668030,286.275818 393.601685,286.791748 407.537384,286.829773 
	C416.795563,286.855042 426.053772,286.183899 435.314728,286.088104 
	C441.049713,286.028748 446.788330,286.546234 452.528107,286.647339 
	C456.423492,286.716003 460.323975,286.439545 464.221680,286.454620 
	C466.830933,286.464691 469.439240,286.715332 472.435486,286.928162 
	C471.879578,290.406372 470.936127,293.814758 469.912659,297.612244 
z"/>
<path fill="#FCB8A8" opacity="1.000000" stroke="none" 
	d="
M94.087067,428.427979 
	C96.237709,427.408508 98.519974,426.091034 100.803719,426.088501 
	C193.170532,425.984955 285.537476,425.994141 377.904388,426.037811 
	C380.027496,426.038818 382.150360,426.600861 384.693542,426.971252 
	C382.639465,428.972900 380.165100,430.904510 377.062653,432.682587 
	C374.965942,432.352722 373.497375,432.022400 372.028717,432.022003 
	C283.395142,431.997437 194.761551,431.993683 106.128006,432.046326 
	C104.403511,432.047363 102.679436,432.741547 100.955162,433.112305 
	C98.709900,431.655945 96.464638,430.199585 94.087067,428.427979 
z"/>
<path fill="#FCB18C" opacity="1.000000" stroke="none" 
	d="
M69.015358,406.348267 
	C70.994011,405.696930 73.098022,405.044525 75.202332,405.043579 
	C184.246735,404.994141 293.291168,404.993500 402.335571,405.055298 
	C404.160614,405.056335 405.985199,405.886658 407.924744,406.721649 
	C406.575562,408.697021 405.111633,410.280762 403.229034,411.597473 
	C400.985657,410.886963 399.161163,410.056427 397.336212,410.055359 
	C291.624664,409.993317 185.913086,409.993958 80.201538,410.043579 
	C78.097282,410.044556 75.993332,410.696960 73.889244,411.045410 
	C72.306458,409.580658 70.723656,408.115906 69.015358,406.348267 
z"/>
<path fill="#FCB393" opacity="1.000000" stroke="none" 
	d="
M74.019974,411.354492 
	C75.993332,410.696960 78.097282,410.044556 80.201538,410.043579 
	C185.913086,409.993958 291.624664,409.993317 397.336212,410.055359 
	C399.161163,410.056427 400.985657,410.886963 402.925354,411.722046 
	C401.582611,413.360199 400.124908,414.606750 398.051086,415.691223 
	C395.633423,415.352783 393.831970,415.022644 392.030396,415.022095 
	C311.302856,414.996552 230.575287,414.996948 149.847733,415.001923 
	C126.193970,415.003387 102.540215,415.027679 78.886452,415.041504 
	C77.307869,413.915527 75.729294,412.789551 74.019974,411.354492 
z"/>
<path fill="#FCB498" opacity="1.000000" stroke="none" 
	d="
M79.015640,415.349426 
	C102.540215,415.027679 126.193970,415.003387 149.847733,415.001923 
	C230.575287,414.996948 311.302856,414.996552 392.030396,415.022095 
	C393.831970,415.022644 395.633423,415.352783 397.741760,415.818481 
	C396.604065,417.674652 395.159515,419.241486 393.414276,420.924286 
	C391.007568,420.693542 388.901672,420.044464 386.795441,420.043396 
	C288.020020,419.993530 189.244583,419.997498 90.469139,420.022003 
	C88.834084,420.022400 87.199120,420.352173 85.256516,420.816895 
	C83.014221,419.289490 81.079529,417.473419 79.015640,415.349426 
z"/>
<path fill="#FE8D67" opacity="1.000000" stroke="none" 
	d="
M328.935150,312.189362 
	C331.034302,311.459839 333.131561,310.100159 335.232849,310.093903 
	C377.137207,309.969208 419.041992,309.993652 460.946686,310.030518 
	C462.406677,310.031799 463.866302,310.471863 465.715637,310.877686 
	C464.991211,314.597290 463.877228,318.146606 462.032776,321.802856 
	C459.682587,321.615875 458.055603,321.034943 456.444397,321.075714 
	C447.580597,321.299866 438.722565,321.870697 429.858978,321.957153 
	C414.184357,322.110077 398.506927,321.940979 382.831177,322.017212 
	C368.266602,322.088043 353.702698,322.303192 338.886963,322.282104 
	C335.401978,318.802765 332.168549,315.496063 328.935150,312.189362 
z"/>
<path fill="#FCC0D0" opacity="1.000000" stroke="none" 
	d="
M308.235962,467.174194 
	C305.816711,466.877991 303.734955,466.110291 301.634399,466.054871 
	C287.595428,465.684723 273.552094,465.235870 259.510834,465.256805 
	C241.791260,465.283173 224.072876,465.781097 206.352905,465.980743 
	C196.752182,466.088928 187.148926,465.961365 177.547501,466.032104 
	C175.587158,466.046509 173.629807,466.471771 171.281189,466.877380 
	C162.664948,464.266907 154.438599,461.486664 146.469116,458.303894 
	C148.514206,457.601227 150.302231,457.040222 152.090729,457.038788 
	C209.947815,456.992920 267.804962,456.985474 325.661896,457.089447 
	C327.123779,457.092072 328.583313,458.409821 330.043945,459.114197 
	C322.884216,461.753540 315.724518,464.392883 308.235962,467.174194 
z"/>
<path fill="#FDA14F" opacity="1.000000" stroke="none" 
	d="
M443.429871,361.885559 
	C440.850830,361.695129 438.587646,361.053192 436.322235,361.045135 
	C411.424377,360.956573 386.526154,360.966705 361.253723,360.569824 
	C365.190460,354.779724 364.180054,349.420441 361.121460,344.021576 
	C368.687744,343.809265 375.858612,343.614960 383.030762,343.537628 
	C385.166962,343.514587 387.310547,343.992767 389.444183,343.945435 
	C401.231689,343.684052 413.016632,343.108185 424.803467,343.080597 
	C434.145538,343.058716 443.489105,343.670471 452.832001,344.000916 
	C449.802917,349.910095 446.773804,355.819275 443.429871,361.885559 
z"/>
<path fill="#FCBEC6" opacity="1.000000" stroke="none" 
	d="
M330.372986,459.063873 
	C328.583313,458.409821 327.123779,457.092072 325.661896,457.089447 
	C267.804962,456.985474 209.947815,456.992920 152.090729,457.038788 
	C150.302231,457.040222 148.514206,457.601227 146.305725,457.971375 
	C141.012863,455.947693 136.140228,453.853943 131.112579,451.437622 
	C132.680313,450.743347 134.402786,450.048004 136.125824,450.046631 
	C204.398499,449.991791 272.671204,449.994598 340.943909,450.029633 
	C342.738892,450.030579 344.533691,450.471954 346.718384,450.877899 
	C342.690674,453.364258 338.273132,455.680634 333.272827,458.103882 
	C332.408295,458.356934 332.183167,458.564514 332.014648,458.833496 
	C331.577118,458.893524 331.139557,458.953552 330.372986,459.063873 
z"/>
<path fill="#FDAD7B" opacity="1.000000" stroke="none" 
	d="
M55.939957,391.377319 
	C175.868591,391.027527 295.851257,391.008423 415.833923,391.055511 
	C417.493378,391.056152 419.152466,391.889618 420.926392,392.726440 
	C420.253448,394.025055 419.465820,394.931610 418.002686,395.772919 
	C415.532043,395.471771 413.737000,395.029938 411.941833,395.029449 
	C296.696350,394.996826 181.450851,394.994446 66.205383,395.043549 
	C64.100334,395.044434 61.995556,395.696899 59.890652,396.045349 
	C58.591770,394.601349 57.292885,393.157349 55.939957,391.377319 
z"/>
<path fill="#FCB9AE" opacity="1.000000" stroke="none" 
	d="
M101.086639,433.428101 
	C102.679436,432.741547 104.403511,432.047363 106.128006,432.046326 
	C194.761551,431.993683 283.395142,431.997437 372.028717,432.022003 
	C373.497375,432.022400 374.965942,432.352722 376.741394,432.818329 
	C374.928467,434.684418 372.808746,436.261261 370.106873,437.698792 
	C366.624634,437.205994 363.726959,436.582977 360.823914,436.556671 
	C355.225891,436.505920 349.621643,436.985535 344.025726,436.893616 
	C335.637787,436.755890 327.255676,436.286591 318.868835,436.032776 
	C317.562073,435.993225 316.247833,436.437927 314.929352,436.503387 
	C311.955078,436.650940 308.971924,436.842590 305.999878,436.756897 
	C301.863373,436.637665 297.729492,436.014801 293.601959,436.080170 
	C284.380432,436.226105 275.164673,436.881012 265.944489,436.928741 
	C254.592194,436.987579 243.237976,436.625488 231.884216,436.472839 
	C224.841431,436.378174 217.797134,436.236755 210.754990,436.294830 
	C203.199203,436.357086 195.644806,436.781982 188.090378,436.766693 
	C180.035843,436.750397 171.981964,436.250336 163.927856,436.251648 
	C157.673721,436.252655 151.417633,436.940765 145.166077,436.888123 
	C137.112366,436.820282 129.058975,436.026978 121.012001,436.118896 
	C116.652916,436.168701 112.307426,437.408661 107.955811,438.111755 
	C105.709915,436.655792 103.464020,435.199829 101.086639,433.428101 
z"/>
<path fill="#FCBAB4" opacity="1.000000" stroke="none" 
	d="
M108.102325,438.426270 
	C112.307426,437.408661 116.652916,436.168701 121.012001,436.118896 
	C129.058975,436.026978 137.112366,436.820282 145.166077,436.888123 
	C151.417633,436.940765 157.673721,436.252655 163.927856,436.251648 
	C171.981964,436.250336 180.035843,436.750397 188.090378,436.766693 
	C195.644806,436.781982 203.199203,436.357086 210.754990,436.294830 
	C217.797134,436.236755 224.841431,436.378174 231.884216,436.472839 
	C243.237976,436.625488 254.592194,436.987579 265.944489,436.928741 
	C275.164673,436.881012 284.380432,436.226105 293.601959,436.080170 
	C297.729492,436.014801 301.863373,436.637665 305.999878,436.756897 
	C308.971924,436.842590 311.955078,436.650940 314.929352,436.503387 
	C316.247833,436.437927 317.562073,435.993225 318.868835,436.032776 
	C327.255676,436.286591 335.637787,436.755890 344.025726,436.893616 
	C349.621643,436.985535 355.225891,436.505920 360.823914,436.556671 
	C363.726959,436.582977 366.624634,437.205994 369.786255,437.833405 
	C367.616882,439.739594 365.186005,441.371826 362.399750,443.056091 
	C360.325134,442.406097 358.606628,441.092194 356.886414,441.089996 
	C278.292145,440.988922 199.697693,440.996582 121.103287,441.040344 
	C119.311996,441.041351 117.521011,441.602081 115.309959,441.971588 
	C112.676300,440.941193 110.462570,439.841003 108.102325,438.426270 
z"/>
<path fill="#FE945F" opacity="1.000000" stroke="none" 
	d="
M339.138519,322.454773 
	C353.702698,322.303192 368.266602,322.088043 382.831177,322.017212 
	C398.506927,321.940979 414.184357,322.110077 429.858978,321.957153 
	C438.722565,321.870697 447.580597,321.299866 456.444397,321.075714 
	C458.055603,321.034943 459.682587,321.615875 461.708374,321.976044 
	C460.994019,325.264587 459.873566,328.486938 457.957642,331.864441 
	C423.540558,332.013123 389.918762,331.973541 356.297577,332.092255 
	C354.510712,332.098541 352.728577,333.441589 350.642853,334.008301 
	C346.607117,330.054413 342.872833,326.254578 339.138519,322.454773 
z"/>
<path fill="#FD9958" opacity="1.000000" stroke="none" 
	d="
M350.944275,334.162354 
	C352.728577,333.441589 354.510712,332.098541 356.297577,332.092255 
	C389.918762,331.973541 423.540558,332.013123 457.638092,332.030701 
	C456.457672,335.809204 454.801331,339.576599 452.988495,343.672455 
	C443.489105,343.670471 434.145538,343.058716 424.803467,343.080597 
	C413.016632,343.108185 401.231689,343.684052 389.444183,343.945435 
	C387.310547,343.992767 385.166962,343.514587 383.030762,343.537628 
	C375.858612,343.614960 368.687744,343.809265 360.845001,343.857544 
	C357.097168,340.558289 354.020721,337.360352 350.944275,334.162354 
z"/>
<path fill="#FDAF80" opacity="1.000000" stroke="none" 
	d="
M60.004837,396.334198 
	C61.995556,395.696899 64.100334,395.044434 66.205383,395.043549 
	C181.450851,394.994446 296.696350,394.996826 411.941833,395.029449 
	C413.737000,395.029938 415.532043,395.471771 417.716797,395.877869 
	C417.303192,396.972534 416.499969,397.896942 415.406433,398.929260 
	C410.328430,398.691864 405.540863,398.047607 400.752991,398.045105 
	C291.539764,397.988129 182.326508,397.993011 73.113258,398.042664 
	C69.989861,398.044098 66.866730,398.660370 63.314331,399.014374 
	C61.963131,398.233551 61.041080,397.428314 60.004837,396.334198 
z"/>
<path fill="#FCC0D0" opacity="1.000000" stroke="none" 
	d="
M332.281189,458.873779 
	C332.183167,458.564514 332.408295,458.356934 332.905090,458.123871 
	C332.929321,458.329315 332.738525,458.621674 332.281189,458.873779 
z"/>
<path fill="#9153A6" opacity="1.000000" stroke="none" 
	d="
M23.580557,137.140854 
	C78.833916,136.974060 133.786072,136.976868 188.738144,137.035767 
	C191.023514,137.038223 193.308304,137.564987 195.740494,138.287613 
	C189.610077,141.883301 183.332550,145.038864 176.759705,147.889709 
	C174.502792,147.389984 172.541336,147.026047 170.579636,147.024750 
	C122.787369,146.993027 74.995049,147.015289 27.202837,146.955353 
	C24.764791,146.952301 22.327557,146.302322 19.889944,145.953537 
	C21.019741,143.075897 22.149540,140.198257 23.580557,137.140854 
z"/>
<path fill="#9A57A4" opacity="1.000000" stroke="none" 
	d="
M19.584656,146.133545 
	C22.327557,146.302322 24.764791,146.952301 27.202837,146.955353 
	C74.995049,147.015289 122.787369,146.993027 170.579636,147.024750 
	C172.541336,147.026047 174.502792,147.389984 176.581329,148.164917 
	C173.272446,151.232117 169.846619,153.719360 166.011520,156.026886 
	C163.487686,155.564758 161.373352,155.037903 159.258530,155.035904 
	C111.561386,154.991013 63.864201,155.003723 16.167021,155.005585 
	C17.204470,152.108246 18.241917,149.210892 19.584656,146.133545 
z"/>
<path fill="#A25AA3" opacity="1.000000" stroke="none" 
	d="
M16.004028,155.332428 
	C63.864201,155.003723 111.561386,154.991013 159.258530,155.035904 
	C161.373352,155.037903 163.487686,155.564758 165.828430,156.318298 
	C163.434906,158.887039 160.815201,160.984589 157.715073,163.059998 
	C109.211464,163.026321 61.188297,163.014816 13.165125,163.003311 
	C14.057096,160.555298 14.949066,158.107285 16.004028,155.332428 
z"/>
<path fill="#B762A0" opacity="1.000000" stroke="none" 
	d="
M7.171495,183.006454 
	C7.791700,180.596649 8.411906,178.186829 9.557753,175.390076 
	C53.997734,175.002197 97.912125,174.979156 141.826279,175.067062 
	C143.974884,175.071350 146.121536,176.046799 148.176895,176.870590 
	C146.765472,179.128372 145.446259,181.085587 143.735382,182.982971 
	C140.246750,182.949310 137.148621,183.043503 134.053024,182.990372 
	C116.502838,182.689102 98.954216,182.205856 81.403069,182.092682 
	C73.173851,182.039612 64.941330,182.887726 56.708172,182.932159 
	C50.582554,182.965240 44.451260,182.063858 38.326488,182.109924 
	C27.939831,182.188049 17.556326,182.685349 7.171495,183.006454 
z"/>
<path fill="#C1669F" opacity="1.000000" stroke="none" 
	d="
M7.102479,183.400604 
	C17.556326,182.685349 27.939831,182.188049 38.326488,182.109924 
	C44.451260,182.063858 50.582554,182.965240 56.708172,182.932159 
	C64.941330,182.887726 73.173851,182.039612 81.403069,182.092682 
	C98.954216,182.205856 116.502838,182.689102 134.053024,182.990372 
	C137.148621,183.043503 140.246750,182.949310 143.653198,183.333511 
	C142.852570,185.827667 141.742462,187.911469 140.186768,189.996460 
	C95.122169,189.986450 50.503181,189.975250 5.884199,189.964066 
	C6.267287,187.907623 6.650374,185.851181 7.102479,183.400604 
z"/>
<path fill="#C5689E" opacity="1.000000" stroke="none" 
	d="
M5.557543,190.163391 
	C50.503181,189.975250 95.122169,189.986450 140.127930,190.319122 
	C139.492752,192.805542 138.470764,194.970474 136.953049,197.100983 
	C92.360596,197.045059 48.263863,197.023560 4.167135,197.002075 
	C4.521719,194.788956 4.876303,192.575836 5.557543,190.163391 
z"/>
<path fill="#CB6A9D" opacity="1.000000" stroke="none" 
	d="
M4.097662,197.400925 
	C48.263863,197.023560 92.360596,197.045059 136.857849,197.459503 
	C136.486282,199.901215 135.714203,201.949982 134.942108,203.998749 
	C91.322220,203.999496 47.702328,204.000244 3.624631,204.001617 
	C3.453946,201.934769 3.741068,199.867264 4.097662,197.400925 
z"/>
<path fill="#A75CA2" opacity="1.000000" stroke="none" 
	d="
M13.002309,163.330658 
	C61.188297,163.014816 109.211464,163.026321 157.666199,163.405045 
	C156.666519,165.512177 155.235260,167.252090 153.347656,168.993912 
	C105.649506,168.998047 58.407730,169.000275 11.165954,169.002502 
	C11.723800,167.221008 12.281646,165.439514 13.002309,163.330658 
z"/>
<path fill="#AE5FA1" opacity="1.000000" stroke="none" 
	d="
M11.090553,169.358917 
	C58.407730,169.000275 105.649506,168.998047 153.296356,169.317932 
	C151.890656,171.950058 150.079880,174.260040 148.269089,176.570038 
	C146.121536,176.046799 143.974884,175.071350 141.826279,175.067062 
	C97.912125,174.979156 53.997734,175.002197 9.625807,175.004852 
	C9.783865,173.242844 10.399509,171.479095 11.090553,169.358917 
z"/>
<path fill="#FDA14F" opacity="1.000000" stroke="none" 
	d="
M33.888374,360.045898 
	C31.591068,355.954437 29.293762,351.862915 27.400330,347.394592 
	C41.020813,346.678558 54.236065,346.174805 67.454582,346.065369 
	C74.701210,346.005341 81.954628,346.884216 89.202713,346.850708 
	C99.588028,346.802704 109.969963,346.246002 120.355881,346.026917 
	C126.443069,345.898468 132.535202,345.998840 138.625107,346.006683 
	C140.457214,346.009033 142.290359,346.013916 144.121216,346.073059 
	C153.173111,346.365387 162.225525,346.950653 171.275589,346.912659 
	C183.160034,346.862762 195.041473,346.127625 206.926086,346.068665 
	C215.174149,346.027710 223.425735,346.886505 231.675125,346.875610 
	C240.727173,346.863678 249.776566,346.143768 258.830627,346.040161 
	C272.353149,345.885406 285.878784,346.006622 299.403076,345.997681 
	C308.658264,345.991577 317.913483,345.963837 327.461914,346.089661 
	C331.190887,349.763733 334.626678,353.293884 337.947998,357.220154 
	C335.686127,358.077484 333.538910,358.940704 331.391144,358.942200 
	C234.827301,359.008942 138.263428,358.991791 41.699577,359.043793 
	C39.095665,359.045166 36.492100,359.697266 33.888374,360.045898 
z"/>
<path fill="#FE8D67" opacity="1.000000" stroke="none" 
	d="
M16.167534,322.998688 
	C14.456661,318.588501 12.745787,314.178314 11.558843,309.384644 
	C56.610085,309.001190 101.137444,309.031464 145.664627,308.957428 
	C150.443710,308.949463 155.221786,308.334625 160.290665,308.174194 
	C165.771561,312.741699 170.962128,317.136322 175.880035,321.874939 
	C173.504578,322.479004 171.401962,322.964386 169.298965,322.966125 
	C118.255180,323.008270 67.211357,322.998840 16.167534,322.998688 
z"/>
<path fill="#FD9C54" opacity="1.000000" stroke="none" 
	d="
M327.168671,345.945740 
	C317.913483,345.963837 308.658264,345.991577 299.403076,345.997681 
	C285.878784,346.006622 272.353149,345.885406 258.830627,346.040161 
	C249.776566,346.143768 240.727173,346.863678 231.675125,346.875610 
	C223.425735,346.886505 215.174149,346.027710 206.926086,346.068665 
	C195.041473,346.127625 183.160034,346.862762 171.275589,346.912659 
	C162.225525,346.950653 153.173111,346.365387 144.121216,346.073059 
	C142.290359,346.013916 140.457214,346.009033 138.625107,346.006683 
	C132.535202,345.998840 126.443069,345.898468 120.355881,346.026917 
	C109.969963,346.246002 99.588028,346.802704 89.202713,346.850708 
	C81.954628,346.884216 74.701210,346.005341 67.454582,346.065369 
	C54.236065,346.174805 41.020813,346.678558 27.342751,347.027710 
	C25.585785,344.612030 24.290268,342.186401 23.414724,339.389374 
	C84.595757,339.011963 145.356842,339.025482 206.117706,338.912598 
	C208.086090,338.908966 210.052063,337.614014 212.432373,336.904205 
	C216.365372,337.576416 219.888611,338.860260 223.404266,338.839874 
	C232.900818,338.784790 242.394150,338.174683 252.186371,338.090271 
	C259.522797,338.919220 266.557343,339.518463 273.603241,339.916534 
	C275.528320,340.025269 277.485291,339.364288 279.431488,339.337769 
	C292.686920,339.157410 305.943359,339.052155 319.496277,339.068176 
	C322.251556,341.457703 324.710114,343.701721 327.168671,345.945740 
z"/>
<path fill="#FE7980" opacity="1.000000" stroke="none" 
	d="
M3.094699,273.422241 
	C45.025829,273.001801 86.886131,273.015350 128.746353,272.963257 
	C131.198959,272.960205 133.650925,272.426880 136.717728,272.364685 
	C139.498962,277.394226 141.665649,282.199432 143.374191,287.003296 
	C99.675011,287.001312 56.433949,286.983704 13.192996,287.044678 
	C10.758019,287.048096 8.323952,287.697540 5.889460,288.046295 
	C4.934258,283.311462 3.979056,278.576630 3.094699,273.422241 
z"/>
<path fill="#FF8177" opacity="1.000000" stroke="none" 
	d="
M5.937428,288.458923 
	C8.323952,287.697540 10.758019,287.048096 13.192996,287.044678 
	C56.433949,286.983704 99.675011,287.001312 143.546127,287.302856 
	C146.792831,291.400085 149.409454,295.196442 151.555786,298.994965 
	C106.124893,298.998108 61.164284,298.982727 16.203777,299.044556 
	C13.765652,299.047913 11.328415,299.697205 8.890767,300.045837 
	C7.922312,296.321075 6.953853,292.596313 5.937428,288.458923 
z"/>
<path fill="#FDA554" opacity="1.000000" stroke="none" 
	d="
M33.941246,360.381653 
	C36.492100,359.697266 39.095665,359.045166 41.699577,359.043793 
	C138.263428,358.991791 234.827301,359.008942 331.391144,358.942200 
	C333.538910,358.940704 335.686127,358.077484 338.251740,357.378296 
	C340.394653,358.949738 342.119446,360.759064 343.844208,362.568420 
	C340.933502,363.045624 338.023132,363.937653 335.112030,363.939941 
	C235.686386,364.017975 136.260666,364.011658 36.358772,364.027466 
	C35.253109,362.930756 34.623611,361.824066 33.941246,360.381653 
z"/>
<path fill="#FE945F" opacity="1.000000" stroke="none" 
	d="
M16.100800,323.375854 
	C67.211357,322.998840 118.255180,323.008270 169.298965,322.966125 
	C171.401962,322.964386 173.504578,322.479004 176.210495,322.019562 
	C181.548950,324.521576 186.284286,327.222961 190.815033,330.266937 
	C188.424271,331.072998 186.238647,331.937988 184.051773,331.941162 
	C131.769180,332.016785 79.486427,331.985901 27.203779,332.044373 
	C24.766064,332.047089 22.329073,332.697632 19.891743,333.046478 
	C18.605850,329.948639 17.319958,326.850830 16.100800,323.375854 
z"/>
<path fill="#FE876F" opacity="1.000000" stroke="none" 
	d="
M8.938318,300.448059 
	C11.328415,299.697205 13.765652,299.047913 16.203777,299.044556 
	C61.164284,298.982727 106.124893,298.998108 151.840134,299.164490 
	C155.063293,302.221649 157.531815,305.111511 160.000320,308.001343 
	C155.221786,308.334625 150.443710,308.949463 145.664627,308.957428 
	C101.137444,309.031464 56.610085,309.001190 11.624861,309.001312 
	C10.439922,306.284393 9.712897,303.567352 8.938318,300.448059 
z"/>
<path fill="#FD9958" opacity="1.000000" stroke="none" 
	d="
M19.950148,333.291565 
	C22.329073,332.697632 24.766064,332.047089 27.203779,332.044373 
	C79.486427,331.985901 131.769180,332.016785 184.051773,331.941162 
	C186.238647,331.937988 188.424271,331.072998 191.185303,330.301270 
	C198.513153,332.302368 205.266159,334.611664 212.019165,336.920990 
	C210.052063,337.614014 208.086090,338.908966 206.117706,338.912598 
	C145.356842,339.025482 84.595757,339.011963 23.358513,339.028076 
	C22.256262,337.953949 21.630198,336.869720 20.900661,335.234924 
	C20.647072,334.405182 20.437389,334.181915 20.168142,334.014587 
	C20.114944,333.855255 20.061749,333.695953 19.950148,333.291565 
z"/>
<path fill="#FE945F" opacity="1.000000" stroke="none" 
	d="
M20.135796,334.278595 
	C20.437389,334.181915 20.647072,334.405182 20.879829,334.900970 
	C20.676126,334.925934 20.389788,334.734253 20.135796,334.278595 
z"/>
<path fill="#FFFEFE" opacity="1.000000" stroke="none" 
	d="
M212.432373,336.904205 
	C205.266159,334.611664 198.513153,332.302368 191.389862,329.958740 
	C186.284286,327.222961 181.548950,324.521576 176.483154,321.675568 
	C170.962128,317.136322 165.771561,312.741699 160.290665,308.174194 
	C157.531815,305.111511 155.063293,302.221649 152.310425,299.162292 
	C149.409454,295.196442 146.792831,291.400085 144.004272,287.304199 
	C141.665649,282.199432 139.498962,277.394226 137.125122,272.296204 
	C135.624237,267.582031 134.330490,263.160736 132.916122,258.370728 
	C132.133636,253.285629 131.471771,248.569199 130.692688,243.426788 
	C130.633041,237.939163 130.690598,232.877472 130.681824,227.406891 
	C131.295914,222.589813 131.976303,218.181641 132.686615,213.385040 
	C133.455673,210.251175 134.194809,207.505753 134.938034,204.379547 
	C135.714203,201.949982 136.486282,199.901215 137.353577,197.493927 
	C138.470764,194.970474 139.492752,192.805542 140.573547,190.317932 
	C141.742462,187.911469 142.852570,185.827667 144.044861,183.393341 
	C145.446259,181.085587 146.765472,179.128372 148.176895,176.870605 
	C150.079880,174.260040 151.890656,171.950058 153.752731,169.316040 
	C155.235260,167.252090 156.666519,165.512177 158.146637,163.427216 
	C160.815201,160.984589 163.434906,158.887039 166.237701,156.498047 
	C169.846619,153.719360 173.272446,151.232117 176.876648,148.469635 
	C183.332550,145.038864 189.610077,141.883301 196.147644,138.470764 
	C206.296997,136.085495 216.114334,133.490967 226.094345,131.949768 
	C237.933640,130.121445 249.652725,132.117157 261.600281,134.951599 
	C265.738312,136.278549 269.476349,137.616669 273.586761,138.985199 
	C278.400238,141.324951 282.841339,143.634308 287.627686,146.021820 
	C291.091034,148.351242 294.209106,150.602509 297.654175,152.963104 
	C299.762817,154.633347 301.544525,156.194290 303.620728,157.890564 
	C305.384155,159.606750 306.852997,161.187607 308.618134,162.897583 
	C310.334229,164.605850 311.754089,166.184982 313.434998,167.936035 
	C315.548309,170.642227 317.400574,173.176483 319.530212,175.886932 
	C321.658813,179.242676 323.510010,182.422226 325.614258,185.819763 
	C326.849884,188.163742 327.832458,190.289749 329.018738,192.703674 
	C329.929657,194.851852 330.636841,196.712128 331.569458,198.812897 
	C332.430908,201.159546 333.066925,203.265717 333.891968,205.684631 
	C334.741577,209.078827 335.402161,212.160263 336.186890,215.619370 
	C336.834412,220.062881 337.357819,224.128723 337.978821,228.596619 
	C338.003967,233.688690 337.931549,238.378738 337.901611,243.533264 
	C337.152466,248.660294 336.360840,253.322815 335.478516,258.402222 
	C333.982971,263.298218 332.578125,267.777344 331.155640,272.630188 
	C329.140320,277.105957 327.142700,281.208038 325.069214,285.654602 
	C322.420593,289.790497 319.847778,293.581909 317.176941,297.696106 
	C317.355042,299.177307 317.263916,300.677582 317.969818,301.435822 
	C321.307983,305.021606 324.863983,308.404541 328.638733,312.024567 
	C332.168549,315.496063 335.401978,318.802765 338.886963,322.282104 
	C342.872833,326.254578 346.607117,330.054413 350.642853,334.008301 
	C354.020721,337.360352 357.097168,340.558289 360.450073,343.920288 
	C364.180054,349.420441 365.190460,354.779724 360.763641,360.543030 
	C355.607697,364.530548 350.405701,366.899048 344.121643,362.771088 
	C342.119446,360.759064 340.394653,358.949738 338.366150,356.982239 
	C334.626678,353.293884 331.190887,349.763733 327.461914,346.089661 
	C324.710114,343.701721 322.251556,341.457703 319.339600,338.764008 
	C316.736603,335.931213 314.587036,333.548065 312.275482,330.906921 
	C307.523163,326.132996 302.932770,321.617035 298.836823,317.587494 
	C289.868042,322.487030 281.298401,327.168518 272.364594,331.892365 
	C265.296509,333.884766 258.592621,335.834778 251.888748,337.784790 
	C242.394150,338.174683 232.900818,338.784790 223.404266,338.839874 
	C219.888611,338.860260 216.365372,337.576416 212.432373,336.904205 
M312.955322,226.162827 
	C311.654236,220.771317 310.353149,215.379807 309.027191,209.237152 
	C306.147095,203.451096 303.266998,197.665039 300.122131,191.222626 
	C296.059265,186.544586 291.996368,181.866562 287.549683,176.624741 
	C283.519104,173.663284 279.488495,170.701843 274.959808,167.212662 
	C268.784851,164.684860 262.736084,161.772705 256.412659,159.697235 
	C231.883789,151.646378 209.271240,156.218658 187.742935,170.942383 
	C182.647217,175.875351 177.551483,180.808319 171.937103,186.093369 
	C168.953445,191.054123 165.969788,196.014862 162.461899,201.442474 
	C160.420563,207.935715 158.379242,214.428955 156.071121,221.607849 
	C155.759354,227.407242 155.447571,233.206635 155.034637,239.875763 
	C156.245605,246.071899 157.456573,252.268036 158.739853,259.192688 
	C160.900696,264.127350 163.061554,269.061981 165.372513,274.657227 
	C169.059875,279.507294 172.747223,284.357330 176.783432,289.809937 
	C182.195526,294.123474 187.607605,298.437012 193.527893,303.245911 
	C195.071793,304.193329 196.538895,305.306305 198.171066,306.063446 
	C225.193817,318.598938 251.494293,317.536835 277.612885,301.575348 
	C282.760986,296.773804 287.909088,291.972260 293.721741,286.986542 
	C300.575958,280.236694 305.192657,272.140320 308.628998,262.512970 
	C310.037384,256.341888 311.445801,250.170822 313.032715,243.172638 
	C312.976440,237.781982 312.920166,232.391327 312.955322,226.162827 
z"/>
<path fill="#FD9958" opacity="1.000000" stroke="none" 
	d="
M312.437439,331.164917 
	C314.587036,333.548065 316.736603,335.931213 319.042847,338.618530 
	C305.943359,339.052155 292.686920,339.157410 279.431488,339.337769 
	C277.485291,339.364288 275.528320,340.025269 273.603241,339.916534 
	C266.557343,339.518463 259.522797,338.919220 252.186371,338.090271 
	C258.592621,335.834778 265.296509,333.884766 272.767334,332.076660 
	C274.156189,332.437164 274.776886,332.842590 275.400177,332.846527 
	C286.651367,332.917938 297.903290,332.991180 309.153625,332.894775 
	C310.253052,332.885345 311.343048,331.767975 312.437439,331.164917 
z"/>
<path fill="#A75CA2" opacity="1.000000" stroke="none" 
	d="
M188.310028,170.675568 
	C209.271240,156.218658 231.883789,151.646378 256.412659,159.697235 
	C262.736084,161.772705 268.784851,164.684860 274.793640,167.670532 
	C269.260681,168.418854 263.883667,168.594696 258.533478,169.071411 
	C256.982269,169.209641 255.507874,170.209991 253.614700,170.811005 
	C237.671753,165.991959 222.462631,167.716827 207.049637,173.069702 
	C204.227844,172.587418 201.814667,172.290787 199.400711,172.000793 
	C195.704102,171.556656 192.006958,171.117065 188.310028,170.675568 
z"/>
<path fill="#FE876F" opacity="1.000000" stroke="none" 
	d="
M276.983307,301.766907 
	C251.494293,317.536835 225.193817,318.598938 198.171066,306.063446 
	C196.538895,305.306305 195.071793,304.193329 193.410492,302.640259 
	C197.931976,301.689240 202.589218,301.491882 207.200043,300.920197 
	C208.863968,300.713867 210.416534,299.609222 212.418320,298.941162 
	C228.323853,303.905579 243.702255,303.030853 259.193146,298.285278 
	C263.559723,299.083557 267.737823,299.427582 271.873169,300.053986 
	C273.622894,300.319031 275.282654,301.177948 276.983307,301.766907 
z"/>
<path fill="#FE945F" opacity="1.000000" stroke="none" 
	d="
M312.275482,330.906921 
	C311.343048,331.767975 310.253052,332.885345 309.153625,332.894775 
	C297.903290,332.991180 286.651367,332.917938 275.400177,332.846527 
	C274.776886,332.842590 274.156189,332.437164 273.131531,332.034302 
	C281.298401,327.168518 289.868042,322.487030 298.836823,317.587494 
	C302.932770,321.617035 307.523163,326.132996 312.275482,330.906921 
z"/>
<path fill="#FE7980" opacity="1.000000" stroke="none" 
	d="
M308.134918,263.036285 
	C305.192657,272.140320 300.575958,280.236694 293.278778,286.687988 
	C288.833160,285.575439 284.830475,284.761475 280.986145,283.646027 
	C286.001312,276.536346 290.858124,269.728119 296.194397,262.941650 
	C300.494202,262.987671 304.314545,263.011993 308.134918,263.036285 
z"/>
<path fill="#FF8177" opacity="1.000000" stroke="none" 
	d="
M280.827820,283.947510 
	C284.830475,284.761475 288.833160,285.575439 292.946503,286.780060 
	C287.909088,291.972260 282.760986,296.773804 277.298096,301.671143 
	C275.282654,301.177948 273.622894,300.319031 271.873169,300.053986 
	C267.737823,299.427582 263.559723,299.083557 259.437256,298.050598 
	C266.593018,292.966400 273.710419,288.456940 280.827820,283.947510 
z"/>
<path fill="#B762A0" opacity="1.000000" stroke="none" 
	d="
M188.026489,170.808975 
	C192.006958,171.117065 195.704102,171.556656 199.400711,172.000793 
	C201.814667,172.290787 204.227844,172.587418 206.793701,173.315704 
	C199.760834,178.768860 192.575607,183.787399 185.128387,188.432251 
	C180.729507,187.286148 176.592636,186.513718 172.455750,185.741287 
	C177.551483,180.808319 182.647217,175.875351 188.026489,170.808975 
z"/>
<path fill="#FF8177" opacity="1.000000" stroke="none" 
	d="
M212.019928,298.914520 
	C210.416534,299.609222 208.863968,300.713867 207.200043,300.920197 
	C202.589218,301.491882 197.931976,301.689240 193.156403,302.392578 
	C187.607605,298.437012 182.195526,294.123474 177.116150,289.454773 
	C182.342590,288.715820 187.236298,288.332031 192.455673,288.035858 
	C199.194214,291.720490 205.607071,295.317505 212.019928,298.914520 
z"/>
<path fill="#FE7980" opacity="1.000000" stroke="none" 
	d="
M192.130005,287.948242 
	C187.236298,288.332031 182.342590,288.715820 176.941742,289.153503 
	C172.747223,284.357330 169.059875,279.507294 165.719543,274.327972 
	C170.169037,273.624664 174.271484,273.250641 178.618652,273.080566 
	C183.285599,278.172424 187.707794,283.060333 192.130005,287.948242 
z"/>
<path fill="#CB6A9D" opacity="1.000000" stroke="none" 
	d="
M300.386871,191.878983 
	C303.266998,197.665039 306.147095,203.451096 308.570892,209.615875 
	C304.322876,210.020660 300.531128,210.046692 296.517151,209.822418 
	C293.150116,204.063477 290.005371,198.554825 287.288757,193.020203 
	C291.940216,192.622467 296.163544,192.250717 300.386871,191.878983 
z"/>
<path fill="#ED738B" opacity="1.000000" stroke="none" 
	d="
M308.381958,262.774628 
	C304.314545,263.011993 300.494202,262.987671 296.259186,262.558655 
	C297.581238,256.102570 299.317932,250.051208 301.510193,243.999725 
	C305.595245,243.999649 309.224731,243.999695 312.854187,243.999741 
	C311.445801,250.170822 310.037384,256.341888 308.381958,262.774628 
z"/>
<path fill="#D16B99" opacity="1.000000" stroke="none" 
	d="
M156.337906,220.922195 
	C158.379242,214.428955 160.420563,207.935715 162.977219,201.496460 
	C167.307068,202.028290 171.121597,202.506134 174.884903,203.340759 
	C172.630188,209.486221 170.426712,215.274948 167.743286,221.047333 
	C163.621521,220.994736 159.979721,220.958466 156.337906,220.922195 
z"/>
<path fill="#C5689E" opacity="1.000000" stroke="none" 
	d="
M174.936127,202.983994 
	C171.121597,202.506134 167.307068,202.028290 163.239334,201.263031 
	C165.969788,196.014862 168.953445,191.054123 172.196426,185.917328 
	C176.592636,186.513718 180.729507,187.286148 184.963150,188.693237 
	C181.685318,193.879929 178.310715,198.431961 174.936127,202.983994 
z"/>
<path fill="#AE5FA1" opacity="1.000000" stroke="none" 
	d="
M253.998276,170.815140 
	C255.507874,170.209991 256.982269,169.209641 258.533478,169.071411 
	C263.883667,168.594696 269.260681,168.418854 275.042694,167.934402 
	C279.488495,170.701843 283.519104,173.663284 287.624084,177.271942 
	C286.023438,178.280212 284.363403,178.756058 282.670074,178.977768 
	C279.443634,179.400223 276.198212,179.677658 272.633972,179.904449 
	C266.204254,176.800766 260.101257,173.807953 253.998276,170.815140 
z"/>
<path fill="#C1669F" opacity="1.000000" stroke="none" 
	d="
M272.960663,180.015289 
	C276.198212,179.677658 279.443634,179.400223 282.670074,178.977768 
	C284.363403,178.756058 286.023438,178.280212 287.815979,177.553833 
	C291.996368,181.866562 296.059265,186.544586 300.254517,191.550812 
	C296.163544,192.250717 291.940216,192.622467 287.001678,192.863297 
	C281.844543,188.493347 277.402588,184.254318 272.960663,180.015289 
z"/>
<path fill="#ED738B" opacity="1.000000" stroke="none" 
	d="
M158.667542,258.464172 
	C157.456573,252.268036 156.245605,246.071899 155.534088,239.439774 
	C159.649765,239.004303 163.266006,239.004807 166.967651,239.407684 
	C168.166702,245.503632 169.280334,251.197189 169.912918,256.918762 
	C165.843750,257.452545 162.255646,257.958374 158.667542,258.464172 
z"/>
<path fill="#D76D96" opacity="1.000000" stroke="none" 
	d="
M296.739410,210.072723 
	C300.531128,210.046692 304.322876,210.020660 308.583313,209.991455 
	C310.353149,215.379807 311.654236,220.771317 312.514160,226.651581 
	C308.429932,227.425903 304.786865,227.711456 301.056335,227.602661 
	C299.559052,221.496445 298.149231,215.784576 296.739410,210.072723 
z"/>
<path fill="#F77686" opacity="1.000000" stroke="none" 
	d="
M158.703705,258.828430 
	C162.255646,257.958374 165.843750,257.452545 170.116730,257.188507 
	C173.325699,262.579041 175.849823,267.727814 178.373932,272.876587 
	C174.271484,273.250641 170.169037,273.624664 165.644501,273.997681 
	C163.061554,269.061981 160.900696,264.127350 158.703705,258.828430 
z"/>
<path fill="#E27091" opacity="1.000000" stroke="none" 
	d="
M166.882233,239.005310 
	C163.266006,239.004807 159.649765,239.004303 155.584656,239.004913 
	C155.447571,233.206635 155.759354,227.407242 156.204514,221.265015 
	C159.979721,220.958466 163.621521,220.994736 167.728943,221.485489 
	C167.757126,227.628403 167.319687,233.316864 166.882233,239.005310 
z"/>
<path fill="#E27091" opacity="1.000000" stroke="none" 
	d="
M301.143829,227.997009 
	C304.786865,227.711456 308.429932,227.425903 312.468414,227.070511 
	C312.920166,232.391327 312.976440,237.781982 312.943451,243.586182 
	C309.224731,243.999695 305.595245,243.999649 301.471405,243.534149 
	C301.032623,238.044800 301.088226,233.020905 301.143829,227.997009 
z"/>
<path fill="#FFFFFF" opacity="1.000000" stroke="none" 
	d="
M301.056335,227.602661 
	C301.088226,233.020905 301.032623,238.044800 301.015808,243.534271 
	C299.317932,250.051208 297.581238,256.102570 295.779755,262.536926 
	C290.858124,269.728119 286.001312,276.536346 280.986145,283.645996 
	C273.710419,288.456940 266.593018,292.966400 259.231506,297.710510 
	C243.702255,303.030853 228.323853,303.905579 212.418320,298.941162 
	C205.607071,295.317505 199.194214,291.720490 192.455673,288.035858 
	C187.707794,283.060333 183.285599,278.172424 178.618652,273.080566 
	C175.849823,267.727814 173.325699,262.579041 170.597778,257.160522 
	C169.280334,251.197189 168.166702,245.503632 166.967651,239.407684 
	C167.319687,233.316864 167.757126,227.628403 168.208893,221.501801 
	C170.426712,215.274948 172.630188,209.486221 174.884903,203.340759 
	C178.310715,198.431961 181.685318,193.879929 185.225143,189.066925 
	C192.575607,183.787399 199.760834,178.768860 207.201996,173.504318 
	C222.462631,167.716827 237.671753,165.991959 253.614700,170.811005 
	C260.101257,173.807953 266.204254,176.800766 272.633972,179.904449 
	C277.402588,184.254318 281.844543,188.493347 286.573547,192.889282 
	C290.005371,198.554825 293.150116,204.063477 296.517151,209.822418 
	C298.149231,215.784576 299.559052,221.496445 301.056335,227.602661 
z"/>
</svg>